<?xml version="1.0" standalone="no"?>
<!DOCTYPE svg PUBLIC "-//W3C//DTD SVG 20010904//EN"
 "http://www.w3.org/TR/2001/REC-SVG-20010904/DTD/svg10.dtd">
<svg version="1.0" xmlns="http://www.w3.org/2000/svg"
 width="512.000000pt" height="512.000000pt" viewBox="0 0 512.000000 512.000000"
 preserveAspectRatio="xMidYMid meet">
<metadata>
Created by potrace 1.16, written by Peter Selinger 2001-2019
</metadata>
<g transform="translate(0.000000,512.000000) scale(0.100000,-0.100000)"
fill="#000000" stroke="none">
<path d="M2343 4359 c-83 -14 -232 -66 -313 -110 -41 -22 -66 -37 -55 -33 135
45 368 99 481 111 51 6 69 12 69 23 0 18 -100 23 -182 9z"/>
<path d="M2503 4273 c37 -2 97 -2 135 0 37 2 6 3 -68 3 -74 0 -105 -1 -67 -3z"/>
<path d="M2280 4257 c-102 -16 -56 -18 55 -3 57 8 80 14 55 14 -25 0 -74 -5
-110 -11z"/>
<path d="M2178 4233 c6 -2 18 -2 25 0 6 3 1 5 -13 5 -14 0 -19 -2 -12 -5z"/>
<path d="M2138 4223 c7 -3 16 -2 19 1 4 3 -2 6 -13 5 -11 0 -14 -3 -6 -6z"/>
<path d="M2725 4216 c195 -39 537 -131 636 -171 96 -39 58 -11 -48 36 -201 87
-383 133 -573 144 l-85 5 70 -14z"/>
<path d="M1360 4187 c-52 -26 -51 -112 1 -131 64 -22 123 35 98 96 -7 16 -23
34 -36 39 -31 11 -33 11 -63 -4z"/>
<path d="M1596 4114 c-191 -115 -401 -325 -548 -551 -163 -248 -248 -447 -283
-661 -22 -134 -18 -426 8 -484 16 -39 37 -48 55 -25 5 6 12 104 15 217 6 226
12 268 64 480 26 106 34 157 30 191 -5 43 -1 55 45 135 148 260 343 483 564
644 141 104 152 116 50 54z"/>
<path d="M2279 4035 c-186 -30 -342 -81 -519 -170 -85 -43 -229 -132 -255
-158 -13 -13 -10 -11 123 68 205 123 436 208 644 239 135 20 391 21 523 1 110
-17 296 -64 376 -95 28 -12 54 -19 56 -16 2 2 -31 17 -74 34 -222 84 -326 104
-583 108 -143 2 -231 -1 -291 -11z"/>
<path d="M3635 3851 c152 -156 214 -226 277 -316 52 -73 98 -156 98 -176 0 -7
29 -78 64 -158 90 -204 105 -245 127 -336 14 -61 17 -68 13 -30 -8 70 -37 167
-101 328 -30 77 -52 141 -50 144 22 22 174 -288 217 -444 22 -79 48 -127 36
-68 -3 17 -8 48 -12 70 -23 147 -94 366 -165 506 -119 238 -377 538 -512 594
-20 8 -54 14 -75 13 l-40 -1 123 -126z"/>
<path d="M2660 3920 c30 -11 109 -39 175 -61 145 -50 287 -120 415 -204 88
-58 154 -115 151 -129 -1 -4 29 -34 65 -69 140 -130 261 -317 318 -492 43
-132 58 -222 66 -385 l7 -155 1 147 c2 139 -5 201 -43 368 -3 14 4 5 16 -20
66 -142 84 -436 40 -640 -26 -119 -57 -208 -112 -327 -21 -46 -35 -83 -33 -83
8 0 99 198 128 278 44 124 69 264 69 397 1 130 -11 205 -50 330 -81 257 -285
543 -544 761 -43 37 -77 69 -75 71 6 6 162 -83 231 -132 33 -24 82 -66 109
-94 47 -48 49 -51 33 -69 -9 -10 -17 -22 -17 -26 0 -5 24 -34 53 -65 29 -32
70 -83 90 -114 39 -58 127 -230 127 -246 0 -6 4 -12 9 -16 23 -13 -34 150 -94
271 -74 152 -144 246 -247 333 -254 216 -590 368 -854 386 l-89 6 55 -21z"/>
<path d="M2300 3855 c-47 -7 -112 -23 -145 -34 -61 -21 -47 -20 60 6 102 24
343 28 470 8 239 -37 460 -129 643 -267 30 -22 56 -38 58 -35 6 6 -99 82 -176
127 -87 52 -199 105 -277 133 -175 63 -461 91 -633 62z"/>
<path d="M3430 3862 c0 -5 35 -39 78 -75 119 -100 309 -302 384 -408 69 -95
185 -315 212 -401 47 -146 60 -247 59 -463 0 -201 -9 -287 -48 -465 -6 -25 -6
-25 5 -2 5 13 20 69 32 125 30 139 33 512 5 650 -71 348 -279 698 -549 922
-96 80 -178 134 -178 117z"/>
<path d="M1895 3775 c-164 -85 -308 -217 -459 -420 -204 -274 -286 -514 -286
-834 0 -231 43 -421 135 -600 180 -349 582 -632 1002 -706 119 -21 407 -21
528 0 297 52 563 213 763 460 35 44 78 104 94 133 17 28 32 52 35 52 2 0 1 -5
-3 -12 -4 -6 -3 -8 3 -5 6 4 11 17 11 29 0 13 10 45 22 71 21 46 21 77 2 77
-5 0 -33 -37 -62 -81 -80 -123 -163 -221 -261 -309 -124 -112 -193 -160 -316
-223 -199 -101 -370 -141 -608 -141 -232 1 -403 41 -596 141 -187 96 -391 269
-502 425 -95 133 -168 323 -182 478 l-6 65 26 -95 c26 -100 98 -252 167 -353
44 -65 163 -195 171 -187 3 3 -27 51 -67 107 -177 247 -258 480 -258 743 -1
227 37 395 136 603 68 146 139 250 243 358 96 99 170 156 280 216 43 24 73 43
66 43 -6 0 -41 -16 -78 -35z m-590 -692 c-4 -10 -25 -65 -46 -123 -41 -113
-52 -123 -19 -17 23 73 58 157 67 157 3 0 2 -8 -2 -17z"/>
<path d="M1440 3714 c-80 -46 -209 -158 -253 -219 -12 -16 15 3 58 44 44 41
116 101 160 134 108 80 113 85 35 41z"/>
<path d="M2241 3564 c-104 -37 -237 -146 -284 -235 l-18 -34 22 30 c64 86 198
189 298 231 63 26 50 31 -18 8z"/>
<path d="M2550 3559 c-87 -13 -246 -68 -317 -110 -129 -75 -251 -225 -269
-330 -5 -31 -3 -29 25 21 44 78 148 171 253 225 125 65 216 87 363 88 140 1
217 -15 343 -74 388 -180 578 -586 486 -1038 -48 -233 -174 -406 -415 -571
-147 -101 -265 -150 -458 -190 l-86 -19 58 0 c84 -1 202 26 282 64 146 70 314
191 428 307 101 104 109 110 139 104 47 -9 97 48 136 157 52 143 67 234 66
397 -1 121 -5 161 -27 241 -35 134 -81 239 -148 339 -125 186 -307 317 -514
370 -94 24 -254 33 -345 19z"/>
<path d="M1427 3438 c-60 -72 -98 -130 -141 -215 -41 -83 -99 -224 -93 -229 2
-2 18 33 36 78 55 141 116 244 234 395 36 45 8 22 -36 -29z"/>
<path d="M1775 3322 c-99 -61 -201 -242 -251 -447 -28 -116 -31 -168 -4 -80
44 146 104 264 176 344 25 28 52 51 60 51 18 0 20 8 -21 -94 -48 -118 -74
-232 -79 -346 l-5 -95 9 80 c21 178 57 283 156 440 52 85 63 125 39 148 -21
22 -43 21 -80 -1z"/>
<path d="M1210 3310 c-6 -11 -8 -20 -6 -20 3 0 10 9 16 20 6 11 8 20 6 20 -3
0 -10 -9 -16 -20z"/>
<path d="M1151 3186 c-51 -123 -72 -225 -76 -376 l-3 -135 7 120 c5 66 13 148
20 181 12 64 60 215 81 253 6 13 10 25 7 27 -3 3 -19 -29 -36 -70z"/>
<path d="M2395 3156 c-77 -19 -145 -59 -205 -120 -58 -60 -56 -67 12 -38 108
47 268 58 375 27 156 -46 293 -160 360 -301 36 -74 38 -85 38 -174 0 -92 -1
-98 -35 -154 -43 -71 -137 -165 -187 -188 -49 -22 -162 -23 -234 -2 -124 37
-276 185 -304 296 -7 26 -4 27 67 48 270 78 520 172 504 188 -7 6 -150 -15
-296 -44 -222 -45 -531 -124 -685 -176 -145 -48 -210 -75 -155 -64 14 3 104
14 200 26 96 12 183 23 192 26 13 4 21 -3 29 -23 58 -155 187 -278 342 -325
101 -30 224 -22 310 21 145 72 271 198 302 304 50 169 -16 399 -154 536 -74
74 -139 113 -226 136 -70 18 -180 18 -250 1z"/>
<path d="M992 2805 c0 -16 2 -22 5 -12 2 9 2 23 0 30 -3 6 -5 -1 -5 -18z"/>
<path d="M4222 2750 c0 -19 2 -27 5 -17 2 9 2 25 0 35 -3 9 -5 1 -5 -18z"/>
<path d="M986 2580 c2 -102 8 -203 13 -225 10 -37 10 -36 4 15 -3 30 -9 132
-13 225 l-8 170 4 -185z"/>
<path d="M3377 2608 c-3 -58 -15 -123 -31 -173 -32 -99 -128 -255 -157 -255
-11 0 -61 -39 -113 -89 -187 -178 -385 -255 -610 -237 -214 16 -384 96 -532
252 -37 39 -70 64 -82 64 -30 0 -46 -34 -33 -71 5 -16 6 -29 1 -29 -15 0 -110
112 -141 164 -34 59 -39 55 -8 -7 126 -246 375 -439 649 -502 95 -22 269 -22
370 -1 91 19 196 68 272 127 33 26 108 109 182 202 181 228 231 340 243 545 3
56 4 102 1 102 -3 0 -8 -42 -11 -92z"/>
<path d="M4234 2540 c0 -91 2 -128 3 -82 2 45 2 119 0 165 -1 45 -3 8 -3 -83z"/>
<path d="M1075 2490 c5 -212 39 -348 139 -555 116 -243 322 -488 523 -622 114
-77 112 -67 -2 13 -92 64 -242 209 -320 309 -213 272 -312 532 -335 875 l-8
125 3 -145z"/>
<path d="M1535 2438 c11 -97 53 -238 100 -333 80 -162 201 -289 366 -386 61
-35 201 -99 217 -99 3 0 -36 25 -87 55 -165 97 -295 217 -401 367 -71 100
-104 168 -156 322 -41 118 -45 126 -39 74z"/>
<path d="M3843 2385 c0 -22 2 -30 4 -17 2 12 2 30 0 40 -3 9 -5 -1 -4 -23z"/>
<path d="M4223 2330 c0 -25 2 -35 4 -22 2 12 2 32 0 45 -2 12 -4 2 -4 -23z"/>
<path d="M3832 2305 c0 -16 2 -22 5 -12 2 9 2 23 0 30 -3 6 -5 -1 -5 -18z"/>
<path d="M781 2307 c-1 -23 30 -160 35 -155 2 3 -5 42 -15 89 -11 46 -20 76
-20 66z"/>
<path d="M1012 2290 c0 -14 2 -19 5 -12 2 6 2 18 0 25 -3 6 -5 1 -5 -13z"/>
<path d="M4212 2255 c0 -16 2 -22 5 -12 2 9 2 23 0 30 -3 6 -5 -1 -5 -18z"/>
<path d="M1021 2244 c0 -11 3 -14 6 -6 3 7 2 16 -1 19 -3 4 -6 -2 -5 -13z"/>
<path d="M4202 2200 c0 -14 2 -19 5 -12 2 6 2 18 0 25 -3 6 -5 1 -5 -13z"/>
<path d="M4191 2154 c0 -11 3 -14 6 -6 3 7 2 16 -1 19 -3 4 -6 -2 -5 -13z"/>
<path d="M987 2153 c-36 -65 25 -328 123 -523 139 -280 328 -490 605 -673 88
-58 306 -169 355 -181 l25 -6 -25 12 c-14 6 -72 33 -130 60 -311 144 -593 413
-737 703 -45 89 -77 179 -71 197 2 6 53 -53 113 -133 268 -354 543 -550 905
-643 194 -50 363 -56 572 -20 555 95 1024 478 1242 1014 14 35 26 66 26 69 0
3 -28 -51 -63 -119 -256 -509 -666 -835 -1184 -939 -215 -44 -404 -38 -609 20
-344 96 -613 298 -846 634 -73 104 -170 279 -199 358 -12 34 -27 65 -31 68 -5
3 -6 14 -2 24 5 12 4 16 -3 12 -6 -4 -16 6 -23 23 -14 33 -36 55 -43 43z"/>
<path d="M3427 1998 c-84 -138 -111 -168 -224 -247 -63 -44 -88 -69 -35 -36
77 50 152 107 180 139 35 40 105 156 98 163 -2 3 -11 -6 -19 -19z"/>
<path d="M4091 1979 c-7 -22 -11 -43 -8 -45 2 -2 9 14 16 37 7 22 11 43 8 45
-2 2 -9 -14 -16 -37z"/>
<path d="M3719 1823 c-183 -269 -364 -441 -579 -548 -72 -36 -324 -125 -354
-125 -8 0 -17 -4 -20 -9 -9 -14 141 18 239 50 284 95 539 317 734 642 32 53
18 46 -20 -10z"/>
<path d="M4046 1821 c4 -13 2 -21 -3 -18 -5 4 -10 0 -10 -7 0 -18 -115 -207
-171 -280 -266 -352 -609 -574 -1013 -656 -304 -62 -598 -48 -859 40 -127 43
-160 39 -84 -9 71 -44 181 -88 298 -119 65 -17 101 -31 99 -39 -11 -33 423
-40 567 -10 347 74 649 246 862 491 151 174 305 443 344 601 6 26 5 28 -8 17
-13 -10 -17 -10 -22 0 -3 7 -3 2 0 -11z"/>
<path d="M1915 1153 c55 -30 179 -71 285 -94 134 -30 381 -32 530 -5 52 10 97
20 100 23 3 2 -38 1 -90 -4 -245 -21 -504 2 -731 67 -117 34 -137 36 -94 13z"/>
</g>
</svg>